#!OML:ASF F:\VICON\USERDATA\INSTALL\rory3\rory3.ASF
:FULLY-SPECIFIED
:DEGREES
852
root -4.30882 17.7154 4.76888 13.3898 -34.9536 -1.95778
lowerback 10.2086 0.342259 -2.15863
upperback 3.56688 0.249216 1.90345
thorax -2.02867 0.0896001 3.16251
lowerneck -20.4692 -3.45524 -10.6923
upperneck 12.1346 -3.16536 8.84149
head 7.38289 -1.19371 4.29208
rclavicle 1.7344e-014 -1.63003e-014
rhumerus -7.61221 14.1754 -77.5054
rradius 27.6005
rwrist 26.125
rhand -13.0681 5.35114
rfingers 7.12502
rthumb 13.0276 -24.2221
lclavicle 1.7344e-014 -1.63003e-014
lhumerus -6.67216 -30.4374 75.7188
lradius 36.1128
lwrist -16.2574
lhand -1.56308 18.9459
lfingers 7.12502
lthumb 24.0924 47.4534
rfemur -20.1779 -3.48862 15.4342
rtibia 58.7956
rfoot 12.9996 5.54751
rtoes 12.9569
lfemur -32.237 5.78729 -25.9022
ltibia 25.1026
lfoot -1.15467 -8.49412
ltoes 4.09556
853
root -4.32803 17.7128 4.76921 12.5201 -34.5951 -1.57233
lowerback 10.1408 0.344486 -2.49721
upperback 3.55914 0.220014 1.84003
thorax -1.99767 0.0744127 3.29146
lowerneck -20.7292 -3.38598 -10.507
upperneck 12.368 -3.07072 8.62536
head 7.48591 -1.15562 4.20371
rclavicle 1.47349e-013 -9.54166e-015
rhumerus -6.78168 13.9227 -76.5486
rradius 27.8673
rwrist 26.1794
rhand -12.961 5.48024
rfingers 7.12502
rthumb 13.1308 -24.0863
lclavicle 1.47349e-013 -9.54166e-015
lhumerus -5.85074 -29.9312 74.3665
lradius 36.2424
lwrist -15.3961
lhand -2.28676 19.6562
lfingers 7.12502
lthumb 23.3983 48.2538
rfemur -19.7326 -3.57633 15.1585
rtibia 59.2281
rfoot 13.238 5.41383
rtoes 12.5489
lfemur -31.4635 5.61499 -26.1024
ltibia 25.075
lfoot -1.21084 -8.50495
ltoes 5.20115
854
root -4.34831 17.7086 4.76777 11.6241 -34.2413 -1.04204
lowerback 10.0179 0.368678 -2.92321
upperback 3.52356 0.21257 1.72325
thorax -1.96655 0.0706163 3.41161
lowerneck -20.915 -3.36351 -10.5201
upperneck 12.5603 -3.02699 8.62829
head 7.57606 -1.13237 4.21576
rclavicle 6.16232e-014 1.13307e-014
rhumerus -6.02312 13.6439 -75.571
rradius 28.299
rwrist 25.8663
rhand -12.749 5.28614
rfingers 7.12502
rthumb 13.3352 -24.2672
lclavicle 6.16232e-014 1.13307e-014
lhumerus -5.07599 -29.4094 73.022
lradius 36.4246
lwrist -14.6049
lhand -2.94448 20.3207
lfingers 7.12502
lthumb 22.7672 48.9973
rfemur -19.3356 -3.66262 14.7564
rtibia 59.6639
rfoot 13.3955 5.14474
rtoes 12.7551
lfemur -30.7492 5.49204 -26.4704
ltibia 25.0409
lfoot -1.2879 -8.62498
ltoes 5.40956
855
root -4.36715 17.7048 4.76839 11.1901 -33.8577 -1.03641
lowerback 9.7029 0.339294 -2.8945
upperback 3.42841 0.186677 1.72971
thorax -1.89018 0.0590222 3.40414
lowerneck -20.9545 -3.30361 -10.6696
upperneck 12.7323 -2.9338 8.78234
head 7.63504 -1.08092 4.30818
rclavicle 6.38596e-014 -3.61788e-014
rhumerus -5.23719 13.367 -74.5729
rradius 28.6377
rwrist 25.5714
rhand -12.6766 5.2433
rfingers 7.12502
rthumb 13.4049 -24.3054
lclavicle 6.38596e-014 -3.61788e-014
lhumerus -4.34445 -28.6473 71.5934
lradius 36.6832
lwrist -14.1419
lhand -2.78078 20.4753
lfingers 7.12502
lthumb 22.9243 49.1325
rfemur -19.0849 -3.74092 14.8592
rtibia 60.0573
rfoot 13.4433 4.82607
rtoes 12.6588
lfemur -30.2014 5.41323 -26.3783
ltibia 24.9427
lfoot -1.30623 -8.79872
ltoes 5.34344
856
root -4.38638 17.7041 4.76965 10.764 -33.5584 -1.09453
lowerback 9.40603 0.344222 -2.89317
upperback 3.35056 0.203678 1.78102
thorax -1.80907 0.0679027 3.45417
lowerneck -21.047 -3.22081 -10.7267
upperneck 12.9463 -2.80557 8.78607
head 7.70882 -1.02192 4.33937
rclavicle -2.79292e-014 1.21259e-014
rhumerus -4.38969 13.2013 -73.4755
rradius 28.9826
rwrist 25.1848
rhand -12.6853 5.2857
rfingers 7.12502
rthumb 13.3966 -24.2636
lclavicle -2.79292e-014 1.21259e-014
lhumerus -3.57842 -27.9608 70.1331
lradius 37.0387
lwrist -13.5002
lhand -2.68229 20.7599
lfingers 7.12502
lthumb 23.0188 49.4053
rfemur -18.8346 -3.79469 15.0042
rtibia 60.415
rfoot 13.3467 4.53999
rtoes 11.3723
lfemur -29.6124 5.33195 -26.2077
ltibia 24.8332
lfoot -1.33887 -8.88174
ltoes 5.39541
857
root -4.4058 17.7047 4.77483 10.116 -33.3488 -0.847507
lowerback 9.08541 0.43657 -3.13074
upperback 3.33446 0.313933 1.7439
thorax -1.65853 0.120219 3.5377
lowerneck -21.3394 -3.22296 -10.6546
upperneck 13.2337 -2.78762 8.64918
head 7.84789 -1.01905 4.28855
rclavicle 1.65985e-014 4.17448e-015
rhumerus -3.59868 13.1772 -72.2227
rradius 29.526
rwrist 24.645
rhand -13.346 5.45476
rfingers 7.12502
rthumb 12.7597 -24.1353
lclavicle 1.65985e-014 4.17448e-015
lhumerus -2.67847 -27.4207 68.6916
lradius 37.3772
lwrist -12.9252
lhand -2.89188 21.2431
lfingers 7.12502
lthumb 22.8177 49.9135
rfemur -18.4847 -3.81413 14.8284
rtibia 60.7291
rfoot 13.1399 4.17215
rtoes 10.3567
lfemur -28.9311 5.244 -26.3282
ltibia 24.7503
lfoot -1.42782 -8.89452
ltoes 5.12689
858
root -4.42469 17.7025 4.78284 9.32221 -33.2016 -0.386974
lowerback 8.76701 0.536998 -3.50179
upperback 3.33027 0.424051 1.62618
thorax -1.49739 0.171505 3.61395
lowerneck -21.7033 -3.22106 -10.5283
upperneck 13.5809 -2.77548 8.51032
head 8.01937 -1.01558 4.22865
rclavicle -3.58806e-014 1.31198e-014
rhumerus -2.75137 13.0533 -70.9946
rradius 30.0547
rwrist 24.3283
rhand -14.4065 5.90468
rfingers 7.12502
rthumb 11.7372 -23.7465
lclavicle -3.58806e-014 1.31198e-014
lhumerus -1.85287 -26.8299 67.2327
lradius 37.7694
lwrist -12.5146
lhand -3.09629 21.7287
lfingers 7.12502
lthumb 22.6215 50.4231
rfemur -18.0664 -3.8339 14.4178
rtibia 61.0165
rfoot 12.8926 3.88036
rtoes 10.2202
lfemur -28.1651 5.19703 -26.6667
ltibia 24.6161
lfoot -1.55555 -8.9432
ltoes 4.89012
859
root -4.44235 17.6991 4.78778 8.60054 -33.012 -0.0943788
lowerback 8.56038 0.578629 -3.72913
upperback 3.29064 0.466946 1.53231
thorax -1.42863 0.192099 3.6409
lowerneck -21.9172 -3.1723 -10.433
upperneck 13.8333 -2.71804 8.45797
head 8.13179 -0.986115 4.20783
rclavicle -8.46823e-014 1.74931e-014
rhumerus -1.82333 12.7909 -69.9176
rradius 30.4535
rwrist 23.705
rhand -14.9049 6.20572
rfingers 7.12502
rthumb 11.2565 -23.4723
lclavicle -8.46823e-014 1.74931e-014
lhumerus -1.16197 -25.9774 65.76
lradius 38.2355
lwrist -12.2245
lhand -3.19093 21.9478
lfingers 7.12502
lthumb 22.5307 50.6532
rfemur -17.6477 -3.87453 14.1956
rtibia 61.275
rfoot 12.5689 3.67881
rtoes 8.53066
lfemur -27.4078 5.12916 -26.8304
ltibia 24.4776
lfoot -1.63233 -9.03738
ltoes 4.43458
860
root -4.45814 17.698 4.79184 8.00594 -32.7483 0.0849011
lowerback 8.30909 0.6174 -3.79405
upperback 3.23965 0.521574 1.43752
thorax -1.34733 0.219367 3.57418
lowerneck -22.1258 -3.13171 -10.3204
upperneck 14.0431 -2.68285 8.44019
head 8.23201 -0.962474 4.19261
rclavicle -6.13748e-014 4.77083e-015
rhumerus -0.924524 12.424 -68.8143
rradius 30.8773
rwrist 22.6181
rhand -15.2791 6.64822
rfingers 7.12502
rthumb 10.8956 -23.0491
lclavicle -6.13748e-014 4.77083e-015
lhumerus -0.327935 -25.1961 64.203
lradius 38.703
lwrist -11.7615
lhand -3.19466 21.9253
lfingers 7.12502
lthumb 22.5271 50.6312
rfemur -17.2664 -4.00527 14.0799
rtibia 61.4941
rfoot 12.2437 3.43788
rtoes 6.8859
lfemur -26.7505 4.95878 -26.8757
ltibia 24.3798
lfoot -1.64162 -9.09124
ltoes 4.37748
